# AST/ASF file generated using VICON BodyLanguage
# -----------------------------------------------
:version 1.10
:name VICON
:units
  mass 1.0
  length 0.45
  angle deg
:documentation
   .ast/.asf automatically generated from VICON data using
   VICON BodyBuilder and BodyLanguage model FoxedUp or BRILLIANT.MOD
:root
   order TX TY TZ RX RY RZ
   axis XYZ
   position 0 0 0  
   orientation 0 0 0 
:bonedata
  begin
     id 1 
     name lhipjoint
     direction 0.624716 -0.669793 0.401383 
     length 2.38238 
     axis 0 0 0  XYZ
  end
  begin
     id 2 
     name lfemur
     direction 0.34202 -0.939693 0  
     length 6.4574  
     axis 0 0 20  XYZ
    dof rx ry rz
    limits (-160.0 20.0)
           (-70.0 70.0)
           (-60.0 70.0)
  end
  begin
     id 3 
     name ltibia
     direction 0.34202 -0.939693 0   
     length 7.68739   
     axis 0 0 20   XYZ
    dof rx
    limits (-10.0 170.0)
  end
  begin
     id 4 
     name lfoot
     direction 0.0681309 -0.187188 0.979959   
     length 2.46615   
     axis -90 7.62852e-016 20   XYZ
    dof rx rz
    limits (-45.0 90.0)
           (-70.0 20.0)
  end
  begin
     id 5 
     name ltoes
     direction 1.53566e-011 -4.21819e-011 1   
     length 1.2376   
     axis -90 7.62852e-016 20   XYZ
    dof rx
    limits (-90.0 20.0)
  end
  begin
     id 6 
     name rhipjoint
     direction -0.644473 -0.655875 0.393043   
     length 2.43293  
     axis 0 0 0  XYZ 
  end
  begin
     id 7 
     name rfemur
     direction -0.34202 -0.939693 0   
     length 6.7025   
     axis 0 0 -20   XYZ
    dof rx ry rz
    limits (-160.0 20.0)
           (-70.0 70.0)
           (-70.0 60.0)
  end
  begin
     id 8 
     name rtibia
     direction -0.34202 -0.939693 0   
     length 7.80547   
     axis 0 0 -20   XYZ
    dof rx
    limits (-10.0 170.0)
 end
 begin
     id 9 
     name rfoot
     direction -0.0756734 -0.207911 0.975216   
     length 2.40315  
     axis -90 -7.62852e-016 -20   XYZ
    dof rx rz
    limits (-45.0 90.0)
           (-20.0 70.0)
  end
  begin
     id 10 
     name rtoes
     direction -1.5353e-011 -4.21879e-011 1   
     length 1.20477   
     axis -90 -7.62852e-016 -20   XYZ
    dof rx
    limits (-90.0 20.0)
  end
  begin
     id 11 
     name lowerback
     direction 0.0160353 0.987463 -0.157037   
     length 2.18572   
     axis 0 0 0   XYZ
    dof rx ry rz
    limits (-20.0 45.0)
           (-30.0 30.0)
           (-30.0 30.0)
  end
  begin
     id 12 
     name upperback
     direction -0.00499661 0.999756 0.0215076   
     length 2.18016   
     axis 0 0 0   XYZ
    dof rx ry rz
    limits (-20.0 45.0)
           (-30.0 30.0)
           (-30.0 30.0)
  end
  begin
     id 13 
     name thorax
     direction -0.00921346 0.995333 0.0960619   
     length 2.24923   
     axis 0 0 0   XYZ
    dof rx ry rz
    limits (-20.0 45.0)
           (-30.0 30.0)
           (-30.0 30.0)
  end
  begin
     id 14 
     name lowerneck
     direction 0.0274184 0.991181 0.12965   
     length 1.70911   
     axis 0 0 0   XYZ
    dof rx ry rz
    limits (-20.0 45.0)
           (-30.0 30.0)
           (-30.0 30.0)
  end
  begin
     id 15 
     name upperneck
     direction 0.0015627 0.999959 -0.00893559   
     length 1.69312   
     axis 0 0 0   XYZ
    dof rx ry rz
    limits (-20.0 45.0)
           (-30.0 30.0)
           (-30.0 30.0)
  end
  begin
     id 16
     name head
     direction -0.00230242 0.999856 -0.0168327  
     length 1.80241  
     axis 0 0 0   XYZ
    dof rx ry rz
    limits (-20.0 45.0)
           (-30.0 30.0)
           (-30.0 30.0)
  end
  begin
     id 17 
     name lclavicle
     direction 0.955523 0.290741 -0.0494489  
     length 3.84275  
     axis 0 0 0   XYZ
    dof ry rz
    limits (-20.0 10.0)
           (0.0 20.0)
  end
  begin
     id 18 
     name lhumerus
     direction 1 -4.48967e-011 -3.18382e-028   
     length 5.17714   
     axis 180 -30 -90   XYZ
    dof rx ry rz
    limits (-60.0 90.0)
           (-90.0 90.0)
           (-90.0 90.0)
  end
  begin
     id 19
     name lradius
     direction 1 -4.48968e-011 -2.22911e-027   
     length 3.43679   
     axis 180 -30 -90   XYZ
    dof rx
    limits (-10.0 170.0)
  end
  begin
     id 20
     name lwrist
     direction 1 -4.48951e-011 -6.32245e-027   
     length 1.7184   
     axis 3.57107e-015 90 90   XYZ
    dof ry
    limits (-180.0 0.0)
 end
  begin
     id 21 
     name lhand
     direction 1 -4.48924e-011 -1.26431e-026   
     length 0.573117   
     axis 8.06912e-015 90 90   XYZ
    dof rx rz
    limits (-90.0 90.0)
           (-45.0 45.0)
  end
  begin
     id 22 
     name lfingers
     direction 1 -4.49001e-011 -2.52965e-026   
     length 0.462062   
     axis 1.61381e-014 90 90   XYZ
    dof rx
    limits (0.0 90.0)
  end
  begin
     id 23
     name lthumb
     direction 0.707107 -6.35008e-011 0.707107   
     length 0.663431   
     axis -90 45 -1.62303e-014   XYZ
    dof rx rz
    limits (-45.0 45.0)
           (-45.0 45.0)
  end
  begin
     id 24 
     name rclavicle
     direction -0.963917 0.256881 -0.0698287   
     length 3.73057  
     axis 0 0 0   XYZ 
    dof ry rz
    limits (-10.0 20.0)
           (-20.0 0.0)
  end
  begin
     id 25 
     name rhumerus
     direction -1 -4.48962e-011 -2.73982e-027  
     length 5.23908   
     axis 180 30 90   XYZ
    dof rx ry rz
    limits (-90.0 60.0)
           (-90.0 90.0)
           (-90.0 90.0)
  end
  begin
     id 26 
     name rradius
     direction -1 -4.48968e-011 -4.33218e-027   
     length 3.46485   
     axis 180 30 90   XYZ
    dof rx
    limits (-10.0 170.0)
  end
  begin
     id 27 
     name rwrist
     direction -1 -4.48989e-011 -6.32372e-027   
     length 1.73243   
     axis 3.57107e-015 -90 -90   XYZ
    dof ry
    limits (-180.0 0.0)
  end
  begin
     id 28
     name rhand
     direction -1 -4.48948e-011 -1.26448e-026   
     length 0.608752   
     axis 8.06912e-015 -90 -90   XYZ
    dof rx rz
    limits (-90.0 90.0)
           (-45.0 45.0)
  end
  begin
     id 29
     name rfingers
     direction -1 -4.48962e-011 -2.52913e-026   
     length 0.490792   
     axis 1.61381e-014 -90 -90   XYZ
    dof rx
    limits (0.0 90.0)
  end
  begin
     id 30
     name rthumb
     direction -0.707107 -6.34878e-011 0.707107   
     length 0.704682   
     axis -90 -45 1.62303e-014   XYZ
    dof rx rz
    limits (-45.0 45.0)
           (-45.0 45.0)
  end
:hierarchy
  begin
    root lhipjoint rhipjoint lowerback
    lhipjoint lfemur
    lfemur ltibia
    ltibia lfoot
    lfoot ltoes
    rhipjoint rfemur
    rfemur rtibia
    rtibia rfoot
    rfoot rtoes
    lowerback upperback
    upperback thorax
    thorax lowerneck lclavicle rclavicle
    lowerneck upperneck
    upperneck head
    lclavicle lhumerus
    lhumerus lradius
    lradius lwrist
    lwrist lhand lthumb
    lhand lfingers
    rclavicle rhumerus
    rhumerus rradius
    rradius rwrist
    rwrist rhand rthumb
    rhand rfingers
  end

#!OML:ASF G:\JayActor3\Patient Classification 1\Patient 1\Session 6\male.ASF
:FULLY-SPECIFIED
:DEGREES
386
root 44.863 14.477 11.1746 181.783 -49.1687 -185.127
lowerback 24.6446 -0.355925 4.86655
upperback 7.48959 -0.115291 5.25864
thorax -5.37618 -0.586823 3.03667
lowerneck -1.93052 -0.0996865 7.58722
upperneck 16.8922 -0.749612 -3.67355
head 5.36543 -0.364631 -2.47324
rclavicle -9.85972e-014 -6.99722e-014
rhumerus -32.4527 10.2234 -88.588
rradius 124.971
rwrist 19.777
rhand 18.0606 -22.8607
rfingers 7.12502
rthumb 42.7243 -47.2033
lclavicle -9.85972e-014 -6.99722e-014
lhumerus -32.4464 -14.2888 90.3388
lradius 122.995
lwrist 3.5518
lhand 9.2645 37.1628
lfingers 7.12502
lthumb 34.4284 63.8504
rfemur -33.649 -5.61834 19.762
rtibia 68.783
rfoot -31.8626 -13.7349
rtoes -3.41729
lfemur -45.8713 35.1909 -12.0504
ltibia 107.956
lfoot -18.4486 -4.15745
ltoes -17.2671
387
root 44.8069 14.4536 11.0868 181.496 -49.3749 -185.009
lowerback 24.6283 -0.320781 4.96385
upperback 7.55889 -0.0610544 5.29005
thorax -5.29077 -0.563954 2.99801
lowerneck -1.80639 -0.136879 7.51092
upperneck 16.9411 -0.800261 -3.62245
head 5.3572 -0.391901 -2.44702
rclavicle -7.63333e-014 -6.36111e-015
rhumerus -32.4804 10.3716 -88.6799
rradius 124.925
rwrist 19.675
rhand 18.2517 -22.9202
rfingers 7.12502
rthumb 42.9031 -47.2003
lclavicle -7.63333e-014 -6.36111e-015
lhumerus -32.3711 -14.1451 90.1901
lradius 122.916
lwrist 3.64645
lhand 9.28538 37.217
lfingers 7.12502
lthumb 34.4482 63.9002
rfemur -33.0782 -5.85963 19.923
rtibia 69.0445
rfoot -32.3829 -13.6514
rtoes -3.57412
lfemur -47.5654 35.3827 -12.9539
ltibia 108.128
lfoot -18.5464 -4.17022
ltoes -17.4901
388
root 44.7484 14.4311 10.999 181.179 -49.5603 -184.871
lowerback 24.5954 -0.281844 5.06956
upperback 7.62781 -0.00107265 5.31547
thorax -5.19743 -0.537696 2.94591
lowerneck -1.67019 -0.183409 7.44538
upperneck 16.9997 -0.864442 -3.57589
head 5.34919 -0.425775 -2.42473
rclavicle 9.70069e-014 -1.11319e-014
rhumerus -32.5091 10.5236 -88.7735
rradius 124.868
rwrist 19.5573
rhand 18.4335 -22.9776
rfingers 7.12502
rthumb 43.0731 -47.1976
lclavicle 9.70069e-014 -1.11319e-014
lhumerus -32.2933 -13.9996 90.0431
lradius 122.831
lwrist 3.71074
lhand 9.30401 37.2661
lfingers 7.12502
lthumb 34.4659 63.9452
rfemur -32.4673 -6.11626 20.0799
rtibia 69.2708
rfoot -32.8766 -13.5405
rtoes -3.73219
lfemur -49.1528 35.5171 -13.891
ltibia 108.126
lfoot -18.6189 -4.14535
ltoes -17.6515
389
root 44.6876 14.4096 10.9113 180.827 -49.7259 -184.713
lowerback 24.5527 -0.241633 5.18634
upperback 7.69546 0.062437 5.33326
thorax -5.10033 -0.509134 2.878
lowerneck -1.51423 -0.237138 7.38837
upperneck 17.0645 -0.939177 -3.53033
head 5.33932 -0.464764 -2.40462
rclavicle -1.05753e-013 6.52014e-014
rhumerus -32.5462 10.6766 -88.8766
rradius 124.803
rwrist 19.4317
rhand 18.5973 -23.0203
rfingers 7.12502
rthumb 43.2262 -47.1859
lclavicle -1.05753e-013 6.52014e-014
lhumerus -32.2134 -13.8558 89.8952
lradius 122.739
lwrist 3.74279
lhand 9.32852 37.3213
lfingers 7.12502
lthumb 34.4892 63.9951
rfemur -31.8117 -6.38203 20.2363
rtibia 69.4614
rfoot -33.3376 -13.4338
rtoes -3.93899
lfemur -50.6173 35.6007 -14.845
ltibia 107.954
lfoot -18.6678 -4.10436
ltoes -17.7707
390
root 44.6245 14.3894 10.8237 180.455 -49.8702 -184.545
lowerback 24.4997 -0.202987 5.30283
upperback 7.756 0.12443 5.34574
thorax -5.00577 -0.480506 2.80491
lowerneck -1.34696 -0.292642 7.33266
upperneck 17.1515 -1.01674 -3.49412
head 5.33423 -0.50616 -2.38803
rclavicle -2.78299e-014 -9.54166e-014
rhumerus -32.5947 10.8445 -88.9901
rradius 124.729
rwrist 19.3048
rhand 18.742 -23.0529
rfingers 7.12502
rthumb 43.3614 -47.1699
lclavicle -2.78299e-014 -9.54166e-014
lhumerus -32.1446 -13.6977 89.7529
lradius 122.643
lwrist 3.73036
lhand 9.34054 37.3582
lfingers 7.12502
lthumb 34.5006 64.0294
rfemur -31.1244 -6.64961 20.3879
rtibia 69.6207
rfoot -33.759 -13.3581
rtoes -4.25833
lfemur -51.9603 35.6413 -15.8228
ltibia 107.612
lfoot -18.6996 -4.04105
ltoes -17.9208
391
root 44.5594 14.3708 10.736 180.081 -49.9953 -184.389
lowerback 24.4385 -0.163226 5.40931
upperback 7.80845 0.18677 5.34565
thorax -4.91606 -0.450543 2.72375
lowerneck -1.15581 -0.348707 7.28256
upperneck 17.2482 -1.09521 -3.46271
head 5.32816 -0.548468 -2.37387
rclavicle -3.97569e-015 -4.45278e-014
rhumerus -32.657 11.0141 -89.1169
rradius 124.65
rwrist 19.1756
rhand 18.874 -23.0777
rfingers 7.12502
rthumb 43.4848 -47.1501
lclavicle -3.97569e-015 -4.45278e-014
lhumerus -32.0886 -13.5388 89.611
lradius 122.546
lwrist 3.6841
lhand 9.35746 37.3856
lfingers 7.12502
lthumb 34.5167 64.0532
rfemur -30.4064 -6.91257 20.5208
rtibia 69.7516
rfoot -34.1533 -13.2949
rtoes -4.60699
lfemur -53.1706 35.6408 -16.8309
ltibia 107.099
lfoot -18.7253 -3.97937
ltoes -18.054
392
root 44.4922 14.354 10.6484 179.704 -50.1026 -184.233
lowerback 24.3626 -0.123506 5.51343
upperback 7.85354 0.249097 5.33802
thorax -4.82699 -0.419548 2.63564
lowerneck -0.961374 -0.404459 7.23293
upperneck 17.3649 -1.17395 -3.43944
head 5.32774 -0.591801 -2.36259
rclavicle 1.08934e-013 -1.59028e-015
rhumerus -32.7258 11.1897 -89.2493
rradius 124.564
rwrist 19.0511
rhand 19.0016 -23.1014
rfingers 7.12502
rthumb 43.6039 -47.1305
lclavicle 1.08934e-013 -1.59028e-015
lhumerus -32.0424 -13.376 89.4723
lradius 122.452
lwrist 3.60585
lhand 9.36906 37.3797
lfingers 7.12502
lthumb 34.5277 64.0448
rfemur -29.6661 -7.16329 20.6455
rtibia 69.8561
rfoot -34.5208 -13.2562
rtoes -5.01506
lfemur -54.2547 35.6052 -17.8549
ltibia 106.417
lfoot -18.7488 -3.90794
ltoes -18.1858
393
root 44.4232 14.3398 10.5606 179.343 -50.1915 -184.096
lowerback 24.2746 -0.0816318 5.59424
upperback 7.88853 0.310469 5.32482
thorax -4.74334 -0.387992 2.55507
lowerneck -0.765932 -0.456897 7.18047
upperneck 17.5027 -1.24769 -3.43181
head 5.33386 -0.63425 -2.35582
rclavicle 4.21423e-014 1.03368e-013
rhumerus -32.8017 11.3782 -89.3808
rradius 124.474
rwrist 18.9295
rhand 19.1355 -23.1301
rfingers 7.12502
rthumb 43.7289 -47.1134
lclavicle 4.21423e-014 1.03368e-013
lhumerus -32.0134 -13.1972 89.3433
lradius 122.363
lwrist 3.50869
lhand 9.42977 37.3578
lfingers 7.12502
lthumb 34.5853 64.0097
rfemur -28.9059 -7.39279 20.75
rtibia 69.933
rfoot -34.8731 -13.2052
rtoes -5.38127
lfemur -55.2061 35.54 -18.901
ltibia 105.563
lfoot -18.7767 -3.79668
ltoes -18.2968
394
root 44.3525 14.3281 10.4724 179.001 -50.2666 -183.981
lowerback 24.1719 -0.0364318 5.64758
upperback 7.91733 0.370588 5.30737
thorax -4.65971 -0.356208 2.48582
lowerneck -0.566062 -0.507516 7.12018
upperneck 17.6445 -1.3178 -3.43319
head 5.34065 -0.676246 -2.35039
rclavicle 6.75868e-014 -1.74931e-014
rhumerus -32.8745 11.5751 -89.508
rradius 124.381
rwrist 18.8097
rhand 19.2822 -23.1668
rfingers 7.12502
rthumb 43.8658 -47.0996
lclavicle 6.75868e-014 -1.74931e-014
lhumerus -31.9963 -12.9943 89.2174
lradius 122.282
lwrist 3.38087
lhand 9.54346 37.3134
lfingers 7.12502
lthumb 34.6932 63.9406
rfemur -28.1225 -7.59824 20.8323
rtibia 69.9791
rfoot -35.2115 -13.1365
rtoes -5.70547
lfemur -56.0216 35.4503 -19.9603
ltibia 104.543
lfoot -18.8138 -3.61545
ltoes -18.3685
395
root 44.2806 14.3194 10.3841 178.672 -50.3375 -183.876
lowerback 24.0587 0.0101798 5.68478
upperback 7.93973 0.429883 5.28588
thorax -4.57815 -0.324071 2.42168
lowerneck -0.367022 -0.55716 7.06061
upperneck 17.7846 -1.38542 -3.44483
head 5.34709 -0.71774 -2.34811
rclavicle 5.32743e-014 5.24792e-014
rhumerus -32.9449 11.7687 -89.6336
rradius 124.292
rwrist 18.692
rhand 19.427 -23.2031
rfingers 7.12502
rthumb 44.001 -47.0856
lclavicle 5.32743e-014 5.24792e-014
lhumerus -31.9897 -12.7856 89.0985
lradius 122.213
lwrist 3.25133
lhand 9.66197 37.2728
lfingers 7.12502
lthumb 34.8057 63.874
rfemur -27.3181 -7.78804 20.904
rtibia 69.9853
rfoot -35.5252 -13.0797
rtoes -6.07088
lfemur -56.7084 35.3357 -21.0198
ltibia 103.361
lfoot -18.8734 -3.32185
ltoes -18.452
